<svg width="20" height="20" viewBox="0 0 20 20" fill="none" xmlns="http://www.w3.org/2000/svg">
<g id="vuesax/outline/book">
<g id="vuesax/outline/book_2">
<g id="book">
<path id="Vector" d="M17.0708 14.6431L17.0698 14.6431C17.0365 14.6406 17.0039 14.6246 16.9797 14.597C16.9558 14.5698 16.9466 14.5395 16.9487 14.5116L16.45 14.4751L16.9483 14.5166C16.9584 14.3956 16.9584 14.2697 16.9584 14.1748V14.1667V5.83341C16.9584 5.08104 16.9237 4.44584 16.8138 3.92225C16.7028 3.39313 16.5076 2.94185 16.1602 2.59376C15.8128 2.24563 15.3617 2.04938 14.8319 1.93756C14.3078 1.8269 13.6713 1.79175 12.9167 1.79175H7.08335C6.3287 1.79175 5.69229 1.8269 5.1681 1.93756C4.63835 2.04938 4.18729 2.24563 3.83986 2.59376C3.49248 2.94185 3.29726 3.39313 3.1862 3.92225C3.07631 4.44584 3.04169 5.08104 3.04169 5.83341V15.0001C3.04169 15.0302 3.0294 15.0615 3.00376 15.0872C2.97811 15.1128 2.94683 15.1251 2.91669 15.1251C2.88654 15.1251 2.85526 15.1128 2.82962 15.0872C2.80397 15.0615 2.79169 15.0302 2.79169 15.0001V5.83341C2.79169 4.01313 3.0765 2.99946 3.66295 2.41301C4.2494 1.82656 5.26307 1.54175 7.08335 1.54175H12.9167C14.737 1.54175 15.7506 1.82656 16.3371 2.41301C16.9235 2.99946 17.2084 4.01313 17.2084 5.83341V14.1667C17.2084 14.3007 17.2082 14.4096 17.2012 14.5236C17.1987 14.5523 17.1837 14.5846 17.1537 14.6107C17.1229 14.6375 17.0917 14.6447 17.0708 14.6431Z" fill="#5E6F82" stroke="#5E6F82"/>
<path id="Vector_2" d="M16.9584 13.125V12.625H16.4584H5.29169C4.04888 12.625 3.04169 13.6322 3.04169 14.875V15.4167C3.04169 16.9595 4.29054 18.2083 5.83335 18.2083H14.1667C15.7095 18.2083 16.9584 16.9595 16.9584 15.4167V13.125ZM14.1667 18.4583H5.83335C4.1595 18.4583 2.79169 17.0905 2.79169 15.4167V14.875C2.79169 13.4937 3.91693 12.375 5.29169 12.375H17.0834C17.1135 12.375 17.1448 12.3873 17.1704 12.4129C17.1961 12.4386 17.2084 12.4699 17.2084 12.5V15.4167C17.2084 17.0905 15.8405 18.4583 14.1667 18.4583Z" fill="#5E6F82" stroke="#5E6F82"/>
<path id="Vector_3" d="M13.3334 5.95825H6.66669C6.63654 5.95825 6.60526 5.94597 6.57962 5.92032C6.55397 5.89468 6.54169 5.8634 6.54169 5.83325C6.54169 5.8031 6.55397 5.77182 6.57962 5.74618C6.60526 5.72054 6.63654 5.70825 6.66669 5.70825H13.3334C13.3635 5.70825 13.3948 5.72054 13.4204 5.74618C13.4461 5.77182 13.4584 5.8031 13.4584 5.83325C13.4584 5.8634 13.4461 5.89468 13.4204 5.92032C13.3948 5.94597 13.3635 5.95825 13.3334 5.95825Z" fill="#5E6F82" stroke="#5E6F82"/>
<path id="Vector_4" d="M10.8334 8.875H6.66669C6.63654 8.875 6.60526 8.86272 6.57962 8.83707C6.55397 8.81143 6.54169 8.78015 6.54169 8.75C6.54169 8.71985 6.55397 8.68857 6.57962 8.66293C6.60526 8.63728 6.63654 8.625 6.66669 8.625H10.8334C10.8635 8.625 10.8948 8.63728 10.9204 8.66293C10.9461 8.68857 10.9584 8.71985 10.9584 8.75C10.9584 8.78015 10.9461 8.81143 10.9204 8.83707C10.8948 8.86272 10.8635 8.875 10.8334 8.875Z" fill="#5E6F82" stroke="#5E6F82"/>
</g>
</g>
</g>
</svg>
