<svg width="24" height="25" viewBox="0 0 24 25" fill="none" xmlns="http://www.w3.org/2000/svg">
<g id="vuesax/outline/bug">
<g id="Bug 1" opacity="0.7">
<path id="Vector" d="M12.0007 16.0064V9.34131H8.20679C7.10222 9.34131 6.20679 10.2367 6.20679 11.3413V17.7079C6.20679 17.842 6.78782 23.1184 12.0007 23.1184" stroke="#FAFAFA" stroke-width="1.5" stroke-miterlimit="10" stroke-linecap="round"/>
<path id="Vector_2" d="M7.86353 9.33971V6.16242C7.86353 6.16242 7.95292 4.37305 10.0112 4.37305H12.0021" stroke="#FAFAFA" stroke-width="1.5" stroke-miterlimit="10" stroke-linecap="round"/>
<path id="Vector_3" d="M10.3671 4.37322L9.51709 2.44897" stroke="#FAFAFA" stroke-width="1.5" stroke-miterlimit="10" stroke-linecap="round"/>
<path id="Vector_4" d="M6.20667 11.2154C6.20667 11.2154 2.80591 10.6367 2.80591 8.31414V6.85645" stroke="#FAFAFA" stroke-width="1.5" stroke-miterlimit="10" stroke-linecap="round"/>
<path id="Vector_5" d="M6.20667 13.6353H2.80591" stroke="#FAFAFA" stroke-width="1.5" stroke-miterlimit="10" stroke-linecap="round"/>
<path id="Vector_6" d="M6.20667 16.2339C6.20667 16.2339 2.80591 16.2339 2.80591 19.0489V20.7936" stroke="#FAFAFA" stroke-width="1.5" stroke-miterlimit="10" stroke-linecap="round"/>
<path id="Vector_7" d="M12.0006 9.33984H15.7945C16.8991 9.33984 17.7945 10.2353 17.7945 11.3398V17.7065C17.7945 17.8406 17.2135 23.1169 12.0006 23.1169" stroke="#FAFAFA" stroke-width="1.5" stroke-miterlimit="10" stroke-linecap="round"/>
<path id="Vector_8" d="M16.1384 9.33971V6.16242C16.1384 6.16242 16.0491 4.37305 13.9907 4.37305H12.0006" stroke="#FAFAFA" stroke-width="1.5" stroke-miterlimit="10" stroke-linecap="round"/>
<path id="Vector_9" d="M13.6328 4.37322L14.4828 2.44897" stroke="#FAFAFA" stroke-width="1.5" stroke-miterlimit="10" stroke-linecap="round"/>
<path id="Vector_10" d="M17.7946 11.2154C17.7946 11.2154 21.1937 10.6367 21.1937 8.31414V6.85645" stroke="#FAFAFA" stroke-width="1.5" stroke-miterlimit="10" stroke-linecap="round"/>
<path id="Vector_11" d="M17.7946 13.6353H21.1945" stroke="#FAFAFA" stroke-width="1.5" stroke-miterlimit="10" stroke-linecap="round"/>
<path id="Vector_12" d="M17.7946 16.2339C17.7946 16.2339 21.1945 16.2339 21.1945 19.0567V20.8014" stroke="#FAFAFA" stroke-width="1.5" stroke-miterlimit="10" stroke-linecap="round"/>
</g>
</g>
</svg>
