<svg width="24" height="24" viewBox="0 0 24 24" fill="none" xmlns="http://www.w3.org/2000/svg">
<g id="vuesax/outline/bug">
<g id="Bug 1">
<path id="Vector" d="M12.0006 15.2227V8.55762H8.20672C7.10216 8.55762 6.20673 9.45305 6.20673 10.5576V16.9242C6.20673 17.0583 6.78776 22.3347 12.0006 22.3347" stroke="#676D79" stroke-width="2" stroke-miterlimit="10" stroke-linecap="round"/>
<path id="Vector_2" d="M7.86353 8.55601V5.37873C7.86353 5.37873 7.95292 3.58936 10.0112 3.58936H12.0021" stroke="#676D79" stroke-width="2" stroke-miterlimit="10" stroke-linecap="round"/>
<path id="Vector_3" d="M10.3671 3.58953L9.51709 1.66528" stroke="#676D79" stroke-width="2" stroke-miterlimit="10" stroke-linecap="round"/>
<path id="Vector_4" d="M6.20667 10.4317C6.20667 10.4317 2.80591 9.85303 2.80591 7.53045V6.07275" stroke="#676D79" stroke-width="2" stroke-miterlimit="10" stroke-linecap="round"/>
<path id="Vector_5" d="M6.20667 12.8516H2.80591" stroke="#676D79" stroke-width="2" stroke-miterlimit="10" stroke-linecap="round"/>
<path id="Vector_6" d="M6.20667 15.4502C6.20667 15.4502 2.80591 15.4502 2.80591 18.2652V20.0099" stroke="#676D79" stroke-width="2" stroke-miterlimit="10" stroke-linecap="round"/>
<path id="Vector_7" d="M12.0007 8.55615H15.7946C16.8992 8.55615 17.7946 9.45158 17.7946 10.5562V16.9228C17.7946 17.0569 17.2135 22.3333 12.0007 22.3333" stroke="#676D79" stroke-width="2" stroke-miterlimit="10" stroke-linecap="round"/>
<path id="Vector_8" d="M16.1385 8.55601V5.37873C16.1385 5.37873 16.0491 3.58936 13.9908 3.58936H12.0007" stroke="#676D79" stroke-width="2" stroke-miterlimit="10" stroke-linecap="round"/>
<path id="Vector_9" d="M13.6328 3.58953L14.4828 1.66528" stroke="#676D79" stroke-width="2" stroke-miterlimit="10" stroke-linecap="round"/>
<path id="Vector_10" d="M17.7946 10.4317C17.7946 10.4317 21.1937 9.85303 21.1937 7.53045V6.07275" stroke="#676D79" stroke-width="2" stroke-miterlimit="10" stroke-linecap="round"/>
<path id="Vector_11" d="M17.7946 12.8516H21.1945" stroke="#676D79" stroke-width="2" stroke-miterlimit="10" stroke-linecap="round"/>
<path id="Vector_12" d="M17.7946 15.4502C17.7946 15.4502 21.1945 15.4502 21.1945 18.2731V20.0177" stroke="#676D79" stroke-width="2" stroke-miterlimit="10" stroke-linecap="round"/>
</g>
</g>
</svg>
