<svg width="24" height="24" viewBox="0 0 24 24" fill="none" xmlns="http://www.w3.org/2000/svg">
<g id="Call history play item">
<g clip-path="url(#clip0_275_7241)">
<path id="Vector 720" d="M18.0373 11.5528L9.1206 7.0969C8.78816 6.93077 8.39709 7.17252 8.39709 7.54417V16.4558C8.39709 16.8275 8.78816 17.0692 9.1206 16.9031L18.0373 12.4473C18.4059 12.2631 18.4059 11.737 18.0373 11.5528Z" fill="#3C4753"/>
<path id="Ellipse 4" d="M24 12C24 18.6274 18.6274 24 12 24C5.37258 24 0 18.6274 0 12C0 5.37258 5.37258 0 12 0C18.6274 0 24 5.37258 24 12ZM2.4 12C2.4 17.3019 6.69807 21.6 12 21.6C17.3019 21.6 21.6 17.3019 21.6 12C21.6 6.69807 17.3019 2.4 12 2.4C6.69807 2.4 2.4 6.69807 2.4 12Z" fill="#EEF0F2"/>
</g>
</g>
<defs>
<clipPath id="clip0_275_7241">
<rect width="24" height="24" rx="12" fill="white"/>
</clipPath>
</defs>
</svg>
