<svg width="19" height="19" viewBox="0 0 19 19" fill="none" xmlns="http://www.w3.org/2000/svg">
<g id="vuesax/linear/call">
<g id="vuesax/linear/call_2">
<g id="call">
<g id="call_2">
<path id="Vector" d="M17.1396 14.4089C17.1396 14.6789 17.0796 14.9564 16.9521 15.2264C16.8246 15.4964 16.6596 15.7514 16.4421 15.9914C16.0746 16.3964 15.6696 16.6889 15.2121 16.8764C14.7621 17.0639 14.2746 17.1614 13.7496 17.1614C12.9846 17.1614 12.1671 16.9814 11.3046 16.6139C10.4421 16.2464 9.57961 15.7514 8.72461 15.1289C7.86211 14.4989 7.04461 13.8014 6.26461 13.0289C5.49211 12.2489 4.79461 11.4314 4.17211 10.5764C3.55711 9.72138 3.06211 8.86638 2.70211 8.01888C2.34211 7.16388 2.16211 6.34638 2.16211 5.56638C2.16211 5.05638 2.25211 4.56888 2.43211 4.11888C2.61211 3.66138 2.89711 3.24138 3.29461 2.86638C3.77461 2.39388 4.29961 2.16138 4.85461 2.16138C5.06461 2.16138 5.27461 2.20638 5.46211 2.29638C5.65711 2.38638 5.82961 2.52138 5.96461 2.71638L7.70461 5.16888C7.83961 5.35638 7.93711 5.52888 8.00461 5.69388C8.07211 5.85138 8.10961 6.00888 8.10961 6.15138C8.10961 6.33138 8.05711 6.51138 7.95211 6.68388C7.85461 6.85638 7.71211 7.03638 7.53211 7.21638L6.96211 7.80888C6.87961 7.89138 6.84211 7.98888 6.84211 8.10888C6.84211 8.16888 6.84961 8.22138 6.86461 8.28138C6.88711 8.34138 6.90961 8.38638 6.92461 8.43138C7.05961 8.67888 7.29211 9.00138 7.62211 9.39138C7.95961 9.78138 8.31961 10.1789 8.70961 10.5764C9.11461 10.9739 9.50461 11.3414 9.90211 11.6789C10.2921 12.0089 10.6146 12.2339 10.8696 12.3689C10.9071 12.3839 10.9521 12.4064 11.0046 12.4289C11.0646 12.4514 11.1246 12.4589 11.1921 12.4589C11.3196 12.4589 11.4171 12.4139 11.4996 12.3314L12.0696 11.7689C12.2571 11.5814 12.4371 11.4389 12.6096 11.3489C12.7821 11.2439 12.9546 11.1914 13.1421 11.1914C13.2846 11.1914 13.4346 11.2214 13.5996 11.2889C13.7646 11.3564 13.9371 11.4539 14.1246 11.5814L16.6071 13.3439C16.8021 13.4789 16.9371 13.6364 17.0196 13.8239C17.0946 14.0114 17.1396 14.1989 17.1396 14.4089Z" stroke="#9196A1" stroke-width="1.5" stroke-miterlimit="10"/>
</g>
</g>
</g>
</g>
</svg>
