<svg width="8" height="12" viewBox="0 0 8 12" fill="none" xmlns="http://www.w3.org/2000/svg">
<g id="chevron.forward">
<g id="Group">
<path id="Vector" d="M7.12038 6.09816C7.12038 5.93074 7.05346 5.77672 6.9262 5.65618L1.62263 0.459752C1.50209 0.345913 1.35477 0.285645 1.18067 0.285645C0.839146 0.285645 0.571289 0.546805 0.571289 0.895022C0.571289 1.06243 0.638254 1.21645 0.745397 1.33028L5.6204 6.09816L0.745397 10.866C0.638254 10.9798 0.571289 11.1272 0.571289 11.3012C0.571289 11.6495 0.839146 11.9107 1.18067 11.9107C1.35477 11.9107 1.50209 11.8504 1.62263 11.7298L6.9262 6.5401C7.05346 6.4129 7.12038 6.26553 7.12038 6.09816Z" fill="#42464D"/>
</g>
</g>
</svg>
