<svg width="8" height="12" viewBox="0 0 8 12" fill="none" xmlns="http://www.w3.org/2000/svg">
<g id="chevron.backward">
<g id="Group">
<path id="Vector" d="M0.571289 6.09816C0.571289 6.26553 0.631557 6.4129 0.758789 6.5401L6.06906 11.7298C6.1829 11.8504 6.3302 11.9107 6.50432 11.9107C6.85255 11.9107 7.12038 11.6495 7.12038 11.3012C7.12038 11.1272 7.04672 10.9798 6.93957 10.866L2.06459 6.09816L6.93957 1.33028C7.04672 1.21645 7.12038 1.06243 7.12038 0.895022C7.12038 0.546805 6.85255 0.285645 6.50432 0.285645C6.3302 0.285645 6.1829 0.345913 6.06906 0.459752L0.758789 5.65618C0.631557 5.77672 0.571289 5.93074 0.571289 6.09816Z" fill="#9196A1"/>
</g>
</g>
</svg>
