<svg width="18" height="18" viewBox="0 0 18 18" fill="none" xmlns="http://www.w3.org/2000/svg">
<g id="vuesax/bold/google" opacity="0.5">
<g id="vuesax/bold/google_2">
<g id="google">
<path id="Vector" d="M16.305 8.30251C16.2675 7.92001 15.945 7.63499 15.5625 7.63499H9.90002C9.48752 7.63499 9.15002 7.97249 9.15002 8.38499V9.66751C9.15002 10.08 9.48752 10.4175 9.90002 10.4175H13.2825C13.2 11.1075 12.75 12.15 11.7525 12.8475C11.115 13.29 10.2675 13.5975 9.15002 13.5975C9.09752 13.5975 9.05253 13.5975 9.00003 13.59C7.08753 13.53 5.46753 12.2475 4.88253 10.485C4.72503 10.0125 4.63503 9.5175 4.63503 9C4.63503 8.4825 4.72503 7.97999 4.87503 7.51499C4.92003 7.37999 4.97253 7.24501 5.03253 7.11001C5.72253 5.55751 7.23003 4.4625 9.00003 4.41C9.04503 4.4025 9.09752 4.4025 9.15002 4.4025C10.2225 4.4025 11.025 4.75499 11.5875 5.14499C11.88 5.34749 12.27 5.30249 12.525 5.05499L13.5675 4.035C13.8975 3.7125 13.8675 3.16499 13.4925 2.89499C12.3 2.01749 10.845 1.5 9.15002 1.5C9.09752 1.5 9.05253 1.50001 9.00003 1.50751C6.12753 1.56001 3.66002 3.22501 2.45252 5.63251C1.94252 6.65251 1.65002 7.7925 1.65002 9C1.65002 10.2075 1.94252 11.3475 2.45252 12.3675H2.46003C3.66753 14.775 6.13503 16.44 9.00003 16.4925C9.05253 16.5 9.09752 16.5 9.15002 16.5C11.175 16.5 12.8775 15.8325 14.115 14.685C15.5325 13.3725 16.35 11.4525 16.35 9.165C16.35 8.8425 16.335 8.56501 16.305 8.30251Z" fill="#3C4753"/>
</g>
</g>
</g>
</svg>
