<svg width="52" height="52" viewBox="0 0 52 52" fill="none" xmlns="http://www.w3.org/2000/svg">
    <g id="vuesax/bold/house-2">
        <g id="vuesax/bold/house-2_2">
            <g id="house-2">
                <path id="Vector"
                    d="M21.6666 33.5833C20.7783 33.5833 20.0416 34.3199 20.0416 35.2083V38.4583C20.0416 39.3466 20.7783 40.0833 21.6666 40.0833C22.555 40.0833 23.2916 39.3466 23.2916 38.4583V35.2083C23.2916 34.3199 22.555 33.5833 21.6666 33.5833Z"
                    fill="#FAFAFA" />
                <path id="Vector_2"
                    d="M47.6667 46.0416H45.5V21.6233C45.5 20.28 44.8934 19.0233 43.8317 18.2L28.665 6.41331C27.105 5.17831 24.895 5.17831 23.335 6.41331L8.16837 18.2C7.10671 19.0233 6.50004 20.28 6.50004 21.6016L6.39171 46.0416H4.33337C3.44504 46.0416 2.70837 46.7566 2.70837 47.6666C2.70837 48.555 3.44504 49.2916 4.33337 49.2916H47.6667C48.555 49.2916 49.2917 48.555 49.2917 47.6666C49.2917 46.7566 48.555 46.0416 47.6667 46.0416ZM22.75 14.625H29.25C30.1384 14.625 30.875 15.3616 30.875 16.25C30.875 17.1383 30.1384 17.875 29.25 17.875H22.75C21.8617 17.875 21.125 17.1383 21.125 16.25C21.125 15.3616 21.8617 14.625 22.75 14.625ZM36.8334 46.0416H15.1667V27.0833C15.1667 25.285 16.6184 23.8333 18.4167 23.8333H33.5834C35.3817 23.8333 36.8334 25.285 36.8334 27.0833V46.0416Z"
                    fill="#FAFAFA" />
            </g>
        </g>
    </g>
</svg>