<svg width="18" height="16" viewBox="0 0 18 16" fill="none" xmlns="http://www.w3.org/2000/svg">
<g id="vuesax/linear/menu-board">
<g id="vuesax/linear/menu-board_2">
<g id="menu-board">
<path id="Vector" d="M15.62 4.50659L13.3733 13.5266C13.2133 14.1999 12.6133 14.6666 11.92 14.6666H3.15998C2.15332 14.6666 1.43333 13.6799 1.73333 12.7132L4.53999 3.69995C4.73332 3.07328 5.31333 2.63989 5.96667 2.63989H14.1667C14.8 2.63989 15.3267 3.02656 15.5467 3.5599C15.6733 3.84656 15.7 4.17326 15.62 4.50659Z" stroke="#4794EB" stroke-width="1.5" stroke-miterlimit="10"/>
<path id="Vector_2" d="M11.6667 14.6667H14.8534C15.7134 14.6667 16.3867 13.94 16.3267 13.08L15.6667 4" stroke="#4794EB" stroke-width="1.5" stroke-miterlimit="10" stroke-linecap="round" stroke-linejoin="round"/>
<path id="Vector_3" d="M7.45331 4.25325L8.14665 1.37329" stroke="#4794EB" stroke-width="1.5" stroke-miterlimit="10" stroke-linecap="round" stroke-linejoin="round"/>
<path id="Vector_4" d="M11.92 4.26001L12.5467 1.3667" stroke="#4794EB" stroke-width="1.5" stroke-miterlimit="10" stroke-linecap="round" stroke-linejoin="round"/>
<path id="Vector_5" d="M6.13336 8H11.4667" stroke="#4794EB" stroke-width="1.5" stroke-miterlimit="10" stroke-linecap="round" stroke-linejoin="round"/>
<path id="Vector_6" d="M5.46667 10.6667H10.8" stroke="#4794EB" stroke-width="1.5" stroke-miterlimit="10" stroke-linecap="round" stroke-linejoin="round"/>
</g>
</g>
</g>
</svg>
