<svg width="19" height="19" viewBox="0 0 19 19" fill="none" xmlns="http://www.w3.org/2000/svg">
<g id="vuesax/outline/note-2">
<g id="vuesax/outline/note-2_2">
<g id="note-2">
<path id="Vector" d="M11.9556 15.2689L11.9556 15.2687L11.9425 15.2677C11.5851 15.2402 11.1701 15.1706 10.7336 15.0632L10.73 15.0624L9.46999 14.7624L9.46922 14.7622C7.79662 14.3667 6.80188 13.7517 6.28888 12.9238C5.77601 12.0962 5.6692 10.9341 6.06094 9.26555L6.06104 9.26514L6.79604 6.12264L6.79628 6.12157C6.95552 5.43397 7.13927 4.89661 7.35639 4.46237L7.35642 4.46239L7.35914 4.45678C7.93638 3.26538 8.74848 2.7575 9.59932 2.56878C10.4831 2.37274 11.4478 2.5135 12.3073 2.7155L12.308 2.71567L13.5598 3.008C13.5599 3.00804 13.5601 3.00808 13.5603 3.00811C15.2543 3.40637 16.2142 4.01076 16.7368 4.84738C17.2526 5.68484 17.3727 6.81215 16.9749 8.50436L16.9749 8.50464L16.2399 11.6394C15.9293 12.9613 15.465 13.8686 14.8669 14.4441C14.2818 15.007 13.5232 15.2963 12.5192 15.2963C12.3373 15.2963 12.1525 15.2893 11.9556 15.2689ZM6.91777 6.14796L6.91777 6.14795L6.91731 6.14989L6.18248 9.29167C6.18245 9.2918 6.18243 9.29192 6.1824 9.29204C5.84065 10.7437 5.82828 11.9305 6.40084 12.8536C6.97301 13.776 8.04252 14.2947 9.49337 14.6402L10.7521 14.9399C10.7524 14.9399 10.7527 14.94 10.753 14.9401C11.1805 15.0429 11.5862 15.1069 11.9553 15.1391C13.0533 15.2476 13.9729 15.0692 14.6925 14.4428C15.3915 13.8342 15.8183 12.8722 16.1111 11.6123C16.1111 11.6122 16.1112 11.6121 16.1112 11.612L16.846 8.4779L16.8461 8.4773C17.1924 6.99224 17.1837 5.81341 16.6269 4.91324C16.07 4.0129 15.02 3.4761 13.5251 3.1293C13.5249 3.12926 13.5248 3.12923 13.5247 3.1292L12.2763 2.83768C12.2757 2.83754 12.2752 2.8374 12.2746 2.83727C11.6259 2.68107 11.031 2.59877 10.5017 2.59877C9.80546 2.59877 9.19431 2.74326 8.67348 3.07428C8.15332 3.40487 7.76647 3.89403 7.47117 4.50936C7.25654 4.95514 7.07357 5.49359 6.91777 6.14796Z" fill="#9196A1" stroke="#9196A1"/>
<path id="Vector_2" d="M3.44068 13.6027L3.44054 13.6023L2.48073 10.6403C2.4807 10.6402 2.48067 10.6401 2.48064 10.6401C1.96578 9.04459 1.97703 7.90985 2.40527 7.07049C2.83339 6.23139 3.74366 5.55937 5.33129 5.04461C5.33139 5.04458 5.33149 5.04455 5.33159 5.04451L6.5127 4.66327C6.90077 4.54391 7.16501 4.47059 7.39187 4.4317L7.40031 4.43025L7.40869 4.42851C7.42546 4.42504 7.43514 4.42746 7.44007 4.42935C7.44525 4.43133 7.45251 4.43554 7.4603 4.44608C7.47803 4.47006 7.48214 4.4995 7.46975 4.52882C7.25518 4.96813 7.07288 5.50652 6.92512 6.15927L6.1907 9.29929C6.19065 9.29951 6.1906 9.29972 6.19055 9.29993C6.19054 9.29996 6.19054 9.29999 6.19053 9.30001C5.84887 10.7515 5.83655 11.9382 6.40906 12.8612C6.98122 13.7836 8.05073 14.3023 9.50158 14.6478L10.7604 14.9475C10.7606 14.9476 10.7609 14.9476 10.7612 14.9477C11.1889 15.0506 11.5949 15.1146 11.9642 15.1468C11.9816 15.1486 11.9945 15.1548 12.0045 15.1632C12.0137 15.1709 12.0232 15.1829 12.0297 15.2006C12.032 15.214 12.0304 15.2255 12.0268 15.235C12.0227 15.2462 12.0151 15.2568 12.0028 15.2653L12.2874 15.6764L12.0057 15.2633C11.9711 15.2869 11.9356 15.3103 11.8993 15.3335L10.2722 14.9497L9.47744 14.7623C9.47735 14.7623 9.47726 14.7623 9.47717 14.7622C7.80473 14.3668 6.81006 13.7518 6.29709 12.924C5.78422 12.0963 5.67742 10.9342 6.06916 9.26567L6.06925 9.26526L6.80425 6.12276L6.8043 6.12277L6.80584 6.11573C6.85595 5.88666 6.91205 5.67027 6.97341 5.47939L7.27275 4.54811L6.3426 4.85095L5.37659 5.16547C5.37634 5.16555 5.37609 5.16563 5.37584 5.16571C4.00366 5.60782 3.01037 6.19271 2.53059 7.13479C2.05127 8.07599 2.15963 9.2267 2.60135 10.6018L2.60174 10.603L3.56174 13.5655L3.56187 13.5659C4.00774 14.9381 4.59453 15.9324 5.53555 16.414C6.47674 16.8956 7.62576 16.7894 8.9982 16.3473L8.9982 16.3473L9.0012 16.3463L10.1862 15.9563L10.188 15.9557C10.2169 15.9461 10.2429 15.9366 10.2626 15.9295L10.2645 15.9288C10.2858 15.921 10.3004 15.9158 10.3155 15.9107L11.7199 15.4426C11.3222 15.6726 10.834 15.8821 10.2284 16.0782L10.2261 16.0789L9.04459 16.4678C8.2151 16.7272 7.51834 16.8489 6.90989 16.8489C6.05715 16.8489 5.39262 16.598 4.8479 16.0983C4.28935 15.5858 3.82044 14.7781 3.44068 13.6027Z" fill="#9196A1" stroke="#9196A1"/>
<path id="Vector_3" d="M10.1221 7.1218L10.1221 7.12179L10.1204 7.12138C10.0944 7.11489 10.0697 7.08348 10.0792 7.04522C10.0857 7.01934 10.1169 6.99465 10.1549 7.00392C10.1551 7.00395 10.1552 7.00399 10.1554 7.00403L13.7912 7.92611L13.7929 7.92652C13.8189 7.93302 13.8436 7.96442 13.8341 8.00268L13.8332 8.00615C13.8322 8.01053 13.8282 8.02003 13.8152 8.03003C13.8022 8.03995 13.789 8.04352 13.7807 8.04392C13.7791 8.04379 13.7758 8.04349 13.7703 8.04283L13.7454 8.03949L13.7342 8.03785L10.1221 7.1218Z" fill="#9196A1" stroke="#9196A1"/>
<path id="Vector_4" d="M9.38019 10.0242L9.38019 10.0242L9.37823 10.0237C9.35224 10.0172 9.32747 9.98583 9.33703 9.94757C9.3435 9.9217 9.37465 9.89703 9.41268 9.90624L11.5937 10.4609L11.5937 10.4609L11.5957 10.4614C11.6217 10.4679 11.6465 10.4993 11.6369 10.5375L11.6368 10.5375L11.6353 10.5443C11.6324 10.5565 11.6274 10.5626 11.6214 10.5672C11.6144 10.5726 11.6021 10.5784 11.5838 10.5788C11.5823 10.5787 11.5789 10.5784 11.5731 10.5777L11.5483 10.5743L11.5371 10.5727L9.38019 10.0242Z" fill="#9196A1" stroke="#9196A1"/>
</g>
</g>
</g>
</svg>
