<svg width="52" height="52" viewBox="0 0 52 52" fill="none" xmlns="http://www.w3.org/2000/svg">
<g id="vuesax/linear/setting-2" opacity="0.7">
<g id="vuesax/linear/setting-2_2">
<g id="setting-2">
<path id="Vector" d="M26 32.5C29.5899 32.5 32.5 29.5899 32.5 26C32.5 22.4101 29.5899 19.5 26 19.5C22.4101 19.5 19.5 22.4101 19.5 26C19.5 29.5899 22.4101 32.5 26 32.5Z" stroke="#FAFAFA" stroke-width="2" stroke-miterlimit="10" stroke-linecap="round" stroke-linejoin="round"/>
<path id="Vector_2" d="M4.33337 27.9067V24.0934C4.33337 21.84 6.17504 19.9767 8.45004 19.9767C12.3717 19.9767 13.975 17.2034 12.0034 13.8017C10.8767 11.8517 11.5484 9.31669 13.52 8.19003L17.2684 6.04503C18.98 5.02669 21.19 5.63336 22.2084 7.34503L22.4467 7.75669C24.3967 11.1584 27.6034 11.1584 29.575 7.75669L29.8134 7.34503C30.8317 5.63336 33.0417 5.02669 34.7534 6.04503L38.5017 8.19003C40.4734 9.31669 41.145 11.8517 40.0184 13.8017C38.0467 17.2034 39.65 19.9767 43.5717 19.9767C45.825 19.9767 47.6884 21.8184 47.6884 24.0934V27.9067C47.6884 30.16 45.8467 32.0234 43.5717 32.0234C39.65 32.0234 38.0467 34.7967 40.0184 38.1984C41.145 40.17 40.4734 42.6834 38.5017 43.81L34.7534 45.955C33.0417 46.9734 30.8317 46.3667 29.8134 44.655L29.575 44.2434C27.625 40.8417 24.4184 40.8417 22.4467 44.2434L22.2084 44.655C21.19 46.3667 18.98 46.9734 17.2684 45.955L13.52 43.81C11.5484 42.6834 10.8767 40.1484 12.0034 38.1984C13.975 34.7967 12.3717 32.0234 8.45004 32.0234C6.17504 32.0234 4.33337 30.16 4.33337 27.9067Z" stroke="#FAFAFA" stroke-width="2" stroke-miterlimit="10" stroke-linecap="round" stroke-linejoin="round"/>
</g>
</g>
</g>
</svg>
