<svg width="19" height="19" viewBox="0 0 19 19" fill="none" xmlns="http://www.w3.org/2000/svg">
<g id="vuesax/linear/story">
<g id="vuesax/linear/story_2">
<g id="story">
<g id="Group">
<path id="Vector" d="M12.9771 6.62396C14.8071 8.45396 14.8071 11.4239 12.9771 13.2539C11.1471 15.0839 8.17711 15.0839 6.34711 13.2539C4.51711 11.4239 4.51711 8.45396 6.34711 6.62396C8.17711 4.79396 11.1471 4.79396 12.9771 6.62396Z" stroke="#9196A1" stroke-width="1.5" stroke-linecap="round" stroke-linejoin="round"/>
<path id="Vector_2" d="M6.84936 16.8913C5.34936 16.2913 4.03686 15.2038 3.16686 13.6963C2.31186 12.2188 2.02686 10.5763 2.22936 9.00879" stroke="#9196A1" stroke-width="1.5" stroke-linecap="round" stroke-linejoin="round"/>
<path id="Vector_3" d="M5.0498 4.02139C6.3248 3.02389 7.9223 2.4314 9.6623 2.4314C11.3648 2.4314 12.9323 3.00889 14.1923 3.96889" stroke="#9196A1" stroke-width="1.5" stroke-linecap="round" stroke-linejoin="round"/>
<path id="Vector_4" d="M12.4746 16.8913C13.9746 16.2913 15.2871 15.2038 16.1571 13.6963C17.0121 12.2188 17.2971 10.5763 17.0946 9.00879" stroke="#9196A1" stroke-width="1.5" stroke-linecap="round" stroke-linejoin="round"/>
</g>
</g>
</g>
</g>
</svg>
