<svg width="16" height="17" viewBox="0 0 16 17" fill="none" xmlns="http://www.w3.org/2000/svg">
<g id="vuesax/linear/trash">
<g id="vuesax/linear/trash_2">
<g id="trash">
<path id="Vector" d="M14 4.06612C11.78 3.84612 9.54667 3.73279 7.32 3.73279C6 3.73279 4.68 3.79945 3.36 3.93279L2 4.06612" stroke="#9196A1" stroke-linecap="round" stroke-linejoin="round"/>
<path id="Vector_2" d="M5.66666 3.39284L5.81332 2.51951C5.91999 1.88618 5.99999 1.41284 7.12666 1.41284H8.87332C9.99999 1.41284 10.0867 1.91284 10.1867 2.52618L10.3333 3.39284" stroke="#9196A1" stroke-linecap="round" stroke-linejoin="round"/>
<path id="Vector_3" d="M12.5667 6.17285L12.1333 12.8862C12.06 13.9329 12 14.7462 10.14 14.7462H5.85999C3.99999 14.7462 3.93999 13.9329 3.86665 12.8862L3.43332 6.17285" stroke="#9196A1" stroke-linecap="round" stroke-linejoin="round"/>
<path id="Vector_4" d="M6.88666 11.0795H9.10666" stroke="#9196A1" stroke-width="1.5" stroke-linecap="round" stroke-linejoin="round"/>
<path id="Vector_5" d="M6.33334 8.41284H9.66668" stroke="#9196A1" stroke-width="1.5" stroke-linecap="round" stroke-linejoin="round"/>
</g>
</g>
</g>
</svg>
