<svg width="17" height="17" viewBox="0 0 17 17" fill="none" xmlns="http://www.w3.org/2000/svg">
<g id="vuesax/linear/user-square">
<g id="vuesax/linear/user-square_2">
<g id="user-square">
<path id="Vector" d="M12.5933 14.6191C12.0067 14.7924 11.3133 14.8724 10.5 14.8724H6.50001C5.68668 14.8724 4.99334 14.7924 4.40668 14.6191C4.55334 12.8857 6.33334 11.519 8.50001 11.519C10.6667 11.519 12.4467 12.8857 12.5933 14.6191Z" stroke="#237EE7" stroke-width="1.5" stroke-linecap="round" stroke-linejoin="round"/>
<path id="Vector_2" d="M10.5 1.53906H6.49998C3.16665 1.53906 1.83331 2.8724 1.83331 6.20573V10.2057C1.83331 12.7257 2.59331 14.1057 4.40665 14.6191C4.55331 12.8857 6.33331 11.519 8.49998 11.519C10.6666 11.519 12.4466 12.8857 12.5933 14.6191C14.4066 14.1057 15.1666 12.7257 15.1666 10.2057V6.20573C15.1666 2.8724 13.8333 1.53906 10.5 1.53906ZM8.49998 9.65238C7.17998 9.65238 6.11331 8.57907 6.11331 7.25907C6.11331 5.93907 7.17998 4.8724 8.49998 4.8724C9.81998 4.8724 10.8866 5.93907 10.8866 7.25907C10.8866 8.57907 9.81998 9.65238 8.49998 9.65238Z" stroke="#237EE7" stroke-width="1.5" stroke-linecap="round" stroke-linejoin="round"/>
<path id="Vector_3" d="M10.8867 7.25924C10.8867 8.57924 9.82001 9.65255 8.50001 9.65255C7.18001 9.65255 6.11334 8.57924 6.11334 7.25924C6.11334 5.93924 7.18001 4.87256 8.50001 4.87256C9.82001 4.87256 10.8867 5.93924 10.8867 7.25924Z" stroke="#237EE7" stroke-width="1.5" stroke-linecap="round" stroke-linejoin="round"/>
</g>
</g>
</g>
</svg>
